<svg xmlns="http://www.w3.org/2000/svg" viewBox="0 0 48 48"><defs><style>.cls-1{fill:#1e0f00;}</style></defs><title>Asset 341</title><g id="Layer_2" data-name="Layer 2"><g id="_1" data-name="1"><path class="cls-1" d="M6.5,28A6.51,6.51,0,0,1,0,21.5V21a1,1,0,0,1,1-1H12a1,1,0,0,1,1,1v.5A6.51,6.51,0,0,1,6.5,28ZM2,22A4.5,4.5,0,0,0,11,22Z"/><path class="cls-1" d="M41.5,28A6.51,6.51,0,0,1,35,21.5V21a1,1,0,0,1,1-1H47a1,1,0,0,1,1,1v.5A6.51,6.51,0,0,1,41.5,28ZM37,22A4.5,4.5,0,0,0,46,22Z"/><path class="cls-1" d="M30,28a7,7,0,0,1-7-7,1,1,0,0,1,1-1H36a1,1,0,0,1,1,1A7,7,0,0,1,30,28Zm-4.9-6a5,5,0,0,0,9.8,0Z"/><path class="cls-1" d="M18,28a7,7,0,0,1-7-7,1,1,0,0,1,1-1H24a1,1,0,0,1,1,1A7,7,0,0,1,18,28Zm-4.9-6a5,5,0,0,0,9.8,0Z"/><rect class="cls-1" x="44" y="26" width="2" height="21"/><rect class="cls-1" x="34" y="24" width="2" height="15"/><rect class="cls-1" x="12" y="24" width="2" height="15"/><rect class="cls-1" x="2" y="26" width="2" height="21"/><rect class="cls-1" y="46" width="48" height="2"/><path class="cls-1" d="M47,22H1a1,1,0,0,1-.55-1.83c.13-.09,13.5-9,22.79-19.82a1,1,0,0,1,1.52,0c9.3,10.84,22.66,19.73,22.79,19.82A1,1,0,0,1,48,21.29,1,1,0,0,1,47,22ZM4.18,20H43.82A127.34,127.34,0,0,1,24,2.52,127.34,127.34,0,0,1,4.18,20Z"/><path class="cls-1" d="M36,22H12a1,1,0,0,1-.9-.56,1,1,0,0,1,.12-1.06A106.59,106.59,0,0,0,23.09.59,1,1,0,0,1,24,0h0a1,1,0,0,1,.91.59A106.33,106.33,0,0,0,36.79,20.38,1,1,0,0,1,36,22ZM14,20H34A111.61,111.61,0,0,1,24,3.38,111.61,111.61,0,0,1,14,20Z"/><rect class="cls-1" x="23" y="1" width="2" height="27"/><path class="cls-1" d="M13,48a1,1,0,0,1-.81-.42l-5-7A1,1,0,0,1,7.94,39c.46,0,11.39-.86,15.12-11.33A1,1,0,0,1,25,28c0,.58-.58,14.28-11.55,19.86A1,1,0,0,1,13,48ZM9.76,40.75l3.54,5c5.07-2.93,7.5-8,8.66-12A20.92,20.92,0,0,1,9.76,40.75Z"/><path class="cls-1" d="M35,48a1,1,0,0,1-.45-.11C23.58,42.31,23,28.61,23,28a1,1,0,0,1,1.94-.36C28.68,38.17,40,39,40.06,39a1,1,0,0,1,.75,1.58l-5,7A1,1,0,0,1,35,48ZM26,33.72c1.16,4,3.59,9.05,8.66,12l3.54-5A20.92,20.92,0,0,1,26,33.72Z"/></g></g></svg>